HIERARCHY
ROOT Hips
{
     OFFSET 1.88212 96.90440 -13.34250
     CHANNELS 6 Xposition Yposition Zposition Zrotation Xrotation Yrotation
     JOINT Spine
     {
          OFFSET 0.00000 11.89050 0.00000
          CHANNELS 3 Zrotation Xrotation Yrotation
          JOINT Spine1
          {
               OFFSET -0.00000 25.65740 0.12766
               CHANNELS 3 Zrotation Xrotation Yrotation
               JOINT HEad
               {
                    OFFSET 0.00000 8.73416 0.01134
                    CHANNELS 3 Zrotation Xrotation Yrotation
                    End Site
                    {
                         OFFSET -0.29000 12.77420 2.51395
                    }
               }
               JOINT LeftShoulder1
               {
                    OFFSET 8.99000 -0.36225 -0.22000
                    CHANNELS 3 Zrotation Xrotation Yrotation
                    JOINT LeftArm
                    {
                         OFFSET 10.28270 -0.00338 0.32212
                         CHANNELS 3 Zrotation Xrotation Yrotation
                         JOINT LeftForeArm
                         {
                              OFFSET 32.76690 0.09914 -1.42434
                              CHANNELS 3 Zrotation Xrotation Yrotation
                              JOINT LeftHand
                              {
                                   OFFSET 27.56430 0.08536 1.02216
                                   CHANNELS 3 Zrotation Xrotation Yrotation
                                   End Site
                                   {
                                        OFFSET 16.74430 -0.60000 1.50291
                                   }
                              }
                         }
                    }
               }
               JOINT RightShoulder
               {
                    OFFSET -8.99000 -0.36225 -0.22000
                    CHANNELS 3 Zrotation Xrotation Yrotation
                    JOINT RightArm
                    {
                         OFFSET -10.28270 -0.00338 0.32212
                         CHANNELS 3 Zrotation Xrotation Yrotation
                         JOINT RightForeArm
                         {
                              OFFSET -32.89710 0.09914 -1.42434
                              CHANNELS 3 Zrotation Xrotation Yrotation
                              JOINT RightHand
                              {
                                   OFFSET -27.49210 0.08536 1.02216
                                   CHANNELS 3 Zrotation Xrotation Yrotation
                                   End Site
                                   {
                                        OFFSET -16.63120 -0.60000 1.50291
                                   }
                              }
                         }
                    }
               }
          }
     }
     JOINT LeftUpLeg
     {
          OFFSET 8.94580 -8.66707 0.10165
          CHANNELS 3 Zrotation Xrotation Yrotation
          JOINT LeftLeg
          {
               OFFSET 0.00000 -44.42270 1.37270
               CHANNELS 3 Zrotation Xrotation Yrotation
               JOINT LeftFoot
               {
                    OFFSET -0.25355 -42.09240 -1.46059
                    CHANNELS 3 Zrotation Xrotation Yrotation
                    JOINT LeftToes
                    {
                         OFFSET -0.04000 -4.41509 8.49910
                         CHANNELS 3 Zrotation Xrotation Yrotation
                         End Site
                         {
                              OFFSET 0.08000 -0.04745 9.77979
                         }
                    }
               }
          }
     }
     JOINT RightUpLeg
     {
          OFFSET -8.94580 -8.66707 0.10165
          CHANNELS 3 Zrotation Xrotation Yrotation
          JOINT RightLeg
          {
               OFFSET 0.00000 -44.42270 1.37270
               CHANNELS 3 Zrotation Xrotation Yrotation
               JOINT RightFoot
               {
                    OFFSET 0.25355 -42.09240 -1.46059
                    CHANNELS 3 Zrotation Xrotation Yrotation
                    JOINT RightToes
                    {
                         OFFSET 0.04000 -4.41509 8.49910
                         CHANNELS 3 Zrotation Xrotation Yrotation
                         End Site
                         {
                              OFFSET -0.08000 -0.13745 9.77979
                         }
                    }
               }
          }
     }
}
MOTION
Frames: 20
Frame Time: 0.01667
30.58646 91.70625 -37.91901 5.23231 17.97026 170.34013 -4.41953 29.72671 -32.79366 0.02482 0.00392 0.06546 2.93605 9.52289 12.89080 4.17645 7.68177 52.50675 -107.97437 -28.53837 -80.00214 -78.12677 51.35844 -56.09496 29.93686 25.92878 -24.85462 12.05185 27.50425 75.26737 18.71569 -74.18744 -30.40981 54.66389 11.49279 57.51961 52.72162 6.41791 29.62094 4.67154 -13.44116 -48.49654 -22.94540 11.24403 72.26850 -6.90250 0.00775 0.00189 6.21108 -10.03008 -73.31074 -33.08075 20.79066 -16.42255 27.95546 49.32573 13.86045 -28.53398 -0.02717 -0.00818 23.79327 -40.16257 33.04759 
30.42510 91.72289 -37.85378 3.46036 19.50653 177.80000 -0.90853 30.91968 -34.39080 0.01616 0.00733 0.05496 0.73491 7.42280 12.65931 5.86031 9.70030 58.05807 -114.67592 -26.82089 -80.88094 -79.18589 56.05241 -55.67365 27.04179 22.48151 -26.86140 13.51539 24.83008 68.30201 52.39470 -70.29531 7.91586 58.36855 12.04312 59.60524 50.89570 7.60426 30.33064 1.08649 -12.44868 -50.87195 -21.66827 11.88599 68.81738 -7.28088 0.00806 0.00228 6.83731 -8.59114 -74.07186 -32.50888 23.79039 -17.61852 23.53378 50.15867 22.10349 -23.96048 -0.23913 -0.04124 18.89088 -40.96127 25.23526 
30.23791 91.74503 -37.81462 1.75231 20.64000 184.23601 2.50378 31.18947 -34.15811 0.01035 0.00451 0.04591 -2.33021 5.68329 12.37932 5.76741 8.97590 51.33018 -118.62951 -32.12477 -84.48794 -71.32178 61.11285 -61.10873 25.94767 5.01707 -19.73698 14.20703 21.84393 61.20239 70.93973 -63.17615 31.03640 61.80038 12.91750 62.21003 49.00501 8.12156 30.79746 -1.81364 -11.21576 -51.25373 -20.21486 12.68608 64.55952 -7.69604 0.00876 0.00327 7.50772 -7.17557 -74.90205 -31.60236 25.92473 -17.34867 21.29723 51.49895 24.82495 -20.06139 -0.10657 0.03634 12.73504 -44.32198 15.96562 
30.05893 91.75262 -37.77425 0.17202 21.44870 189.69994 5.66107 30.73654 -32.19176 0.00698 -0.00054 0.03332 -6.19974 4.69787 12.12824 5.44320 8.37999 43.97361 -121.23908 -34.74305 -86.85978 -65.55190 64.07165 -65.47819 24.10385 2.47577 -21.85741 7.00575 12.36829 62.36327 93.78078 -61.84162 49.44105 64.80305 14.75568 65.21020 47.88139 9.58294 30.40742 -4.07036 -9.90067 -49.83615 -18.58359 13.61187 59.50767 -8.19872 0.00965 0.00444 8.16279 -5.74195 -75.75805 -30.50419 27.37650 -15.72300 22.47305 51.32045 22.38287 -16.84093 -0.09811 -0.01286 9.74104 -45.38077 12.59144 
29.91655 91.74644 -37.71767 -1.23117 21.99928 194.24707 8.43674 29.81478 -28.57273 -0.00330 0.00294 0.02925 -9.86572 4.84306 10.41349 4.92336 7.84257 35.84718 -122.49242 -35.75860 -88.24426 -61.79152 65.55316 -68.01801 24.43368 -4.61030 -18.05880 6.50523 10.86051 52.84402 98.40491 -51.72090 59.56075 67.22614 16.92303 67.93259 47.07561 9.82342 29.02088 -5.74531 -8.62787 -46.81459 -16.77757 14.60764 53.68143 -8.79911 0.01040 0.00536 8.78704 -4.26297 -76.60381 -29.32016 28.33452 -12.82937 25.85025 50.10090 16.46459 -14.55190 -0.03299 -0.01461 7.53858 -45.99754 9.92826 
29.82223 91.73943 -37.65220 -2.41898 22.34842 197.92813 10.80933 28.64036 -23.44108 -0.00951 0.00787 0.02587 -13.06713 6.14180 7.42390 4.31901 7.49862 26.85986 -122.55658 -35.76749 -88.90146 -59.37807 65.96310 -69.16396 23.05586 -4.32368 -19.91632 5.97764 9.90904 42.77385 100.29433 -41.29725 67.96153 69.12227 18.69065 70.00505 46.53678 10.23318 27.63954 -6.90461 -7.48066 -42.36642 -14.81006 15.59811 47.11238 -9.47541 0.01075 0.00573 9.40030 -2.75531 -77.40047 -28.12080 28.97047 -8.74230 30.35495 47.88270 8.50832 -12.77332 -0.00169 -0.01244 6.72963 -46.09748 9.45121 
29.76913 91.74179 -37.60083 -3.36379 22.54987 200.78795 12.79739 27.41778 -16.97272 -0.00852 0.01999 0.02437 -15.51027 8.45012 3.28853 3.67518 7.35666 17.15574 -117.13281 -32.80454 -86.96675 -49.76871 62.86760 -75.86520 23.39540 -7.03225 -17.90326 6.09034 9.64817 32.16034 99.74051 -30.83942 75.42749 70.87842 19.52914 71.61916 29.61142 13.86122 16.02148 -7.60407 -6.49282 -36.64218 -12.71278 16.49879 39.84761 -10.18707 0.01059 0.00541 10.04896 -1.30859 -78.11966 -26.98115 29.45263 -3.50954 35.15970 44.60137 -0.38599 -11.40558 0.01363 -0.00911 6.40833 -46.03065 9.57305 
29.73256 91.75484 -37.59067 -4.05340 22.65728 202.86995 14.39479 26.43558 -9.46304 -0.00541 0.04699 0.02396 -16.39334 11.78201 -3.32702 3.23925 7.32152 6.88783 -109.14219 -27.93215 -83.79517 -46.78162 55.54395 -76.37817 21.33317 -1.61881 -21.39039 7.20356 9.50912 20.99996 97.11481 -20.48294 82.11601 68.11641 16.62375 73.23928 28.81447 14.69505 14.20416 -8.03947 -5.63763 -30.94595 -10.71950 17.09390 33.14804 -10.91823 0.01021 0.00486 10.77149 -0.04199 -78.75359 -26.03273 29.98065 2.86654 39.70555 40.12814 -9.42179 -10.24869 0.02113 -0.00658 6.56644 -45.73991 10.49482 
29.68652 91.77763 -37.64186 -4.47925 22.70861 204.21011 15.65104 25.70233 -2.62504 -0.00953 0.01079 -0.08231 -15.98905 15.13347 -10.58522 3.09669 7.53262 -2.39780 -104.02937 -25.08516 -82.27848 -45.26652 50.17699 -76.76418 20.77541 -0.15148 -21.39773 8.70565 9.23328 11.36129 94.20330 -14.15129 85.75523 65.76547 14.05105 74.58940 21.37529 17.81952 9.09010 -8.25749 -4.92637 -25.36492 -8.86289 17.45611 27.07896 -11.66304 0.00965 0.00417 11.58923 0.92688 -79.31257 -25.26953 30.28803 9.11908 43.98766 35.36467 -20.90644 -7.76655 0.19491 -0.04067 7.90917 -45.55997 16.22261 
29.61309 91.81152 -37.76732 -4.10880 22.34583 202.85696 15.88325 24.93712 5.23130 -0.00503 0.00933 -0.08877 -14.47909 18.11989 -18.14565 3.32925 7.99043 -10.50163 -100.75121 -23.75929 -81.54148 -44.61745 46.23324 -76.94177 19.56386 2.00982 -22.84129 10.58941 8.84328 2.83749 91.60172 -10.05585 87.03693 60.41902 8.99541 75.19012 25.83232 16.25901 11.00377 -7.85121 -5.11338 -18.28281 -7.15213 17.64445 21.68643 -12.42804 0.00886 0.00315 12.50255 1.48636 -79.80621 -25.26303 29.07311 16.81400 47.94206 30.36588 -32.93064 -7.75736 0.12831 -0.01928 12.41566 -44.77090 24.06850 
29.50955 91.87827 -37.94788 -3.02661 21.67409 199.26518 15.35531 24.80553 12.49248 -0.00704 0.05320 -0.17673 -12.62524 19.49452 -24.63158 3.60548 8.01313 -15.98546 -98.71130 -23.41279 -81.13219 -50.70055 42.29329 -73.41499 18.99600 6.91838 -23.19743 12.17679 7.90303 -3.20613 91.27007 -9.88658 84.32037 56.33784 6.68229 74.74162 14.19605 23.08901 5.58401 -6.79793 -5.89402 -11.19631 -5.94481 17.55335 18.13596 -13.23131 0.00816 0.00199 13.49258 1.59345 -80.23716 -25.76495 26.64979 25.52375 50.16215 23.61573 -42.34553 -9.44452 -0.04227 0.06166 16.52941 -41.81625 30.10554 
29.37061 91.99527 -38.17310 -1.37749 20.68648 193.86200 14.17727 24.99545 19.20086 -0.01225 0.04329 -0.15293 -10.69045 19.66247 -30.25915 3.86625 7.87608 -19.44042 -97.55664 -23.66820 -80.80972 -53.67091 39.87574 -71.78331 18.08599 10.14748 -24.14326 19.32416 3.58018 -16.83334 85.54654 -2.85669 78.14306 52.65249 6.15461 73.43333 27.50149 12.61926 15.79105 -5.10279 -7.05336 -4.20919 -5.16372 17.35525 16.21891 -14.09468 0.00752 0.00062 14.52547 1.25668 -80.60813 -26.67612 23.29185 33.84178 52.90546 19.97269 -49.20914 -7.77831 0.17077 0.04501 16.82377 -41.67675 35.06110 
29.19913 92.17432 -38.42153 0.67391 19.33521 187.02026 12.49115 25.21130 25.40301 -0.00927 0.02796 -0.13253 -8.83875 18.84590 -34.99847 5.49688 8.83177 -31.20336 -99.50520 -34.00199 -83.82465 -55.16152 38.97585 -71.14737 11.91605 -5.58981 -17.35488 19.65860 3.01621 -18.00051 87.47318 -7.39190 73.24345 48.94685 7.26136 71.84796 15.60376 22.98842 7.63357 -2.73337 -8.36184 2.62867 -4.75337 17.15105 15.73356 -15.03274 0.00689 -0.00097 15.55926 0.53436 -80.92511 -27.49261 18.89792 41.47210 54.68853 17.13526 -53.12095 -10.20462 -0.03300 0.02448 19.78419 -40.71854 37.64974 
29.00222 92.40734 -38.65035 2.66455 17.74523 179.93962 10.64462 25.18801 31.45139 -0.01092 0.00435 -0.03948 -6.92925 17.75877 -39.53051 6.90692 9.25110 -38.84468 -101.25272 -39.88618 -85.36149 -55.12110 38.74556 -71.46184 9.64298 -12.32941 -14.46729 21.01273 1.38908 -22.21647 87.63814 -8.59146 67.94571 44.72371 9.07946 70.67459 10.37585 26.33617 6.23887 -0.09950 -9.35917 9.45803 -4.40332 16.95252 15.60232 -16.00836 0.00709 -0.00247 16.50421 -0.33114 -81.22359 -27.81525 14.03411 48.67746 55.98930 13.91139 -56.45778 -12.34144 -0.03924 0.01035 21.77521 -39.26162 39.74862 
28.78474 92.68688 -38.83950 4.56682 15.89194 172.63753 8.73008 24.90246 37.34919 -0.00526 0.00690 -0.02903 -5.03436 16.34211 -43.71929 8.05183 9.31816 -43.33263 -102.54381 -42.47824 -85.63612 -53.77197 38.89100 -72.44734 8.79294 -13.98533 -13.22061 22.78135 -0.99959 -27.91667 86.36294 -8.08874 62.66076 40.19735 11.29386 70.08784 10.91892 23.85003 7.70202 2.80814 -10.04863 16.28678 -4.12555 16.75336 15.80382 -17.01804 0.00694 -0.00283 17.38556 -1.29048 -81.52528 -27.57297 8.81356 55.51900 56.90652 10.44551 -59.36499 -14.33722 -0.03616 0.01765 22.93946 -37.41253 41.18509 
28.55150 92.99329 -38.99464 6.16827 13.93339 165.74127 6.87649 24.40989 42.43835 -0.00044 0.00940 -0.02625 -3.12362 14.61794 -47.61903 8.94959 9.20897 -45.72425 -103.53938 -43.86214 -85.60352 -54.67332 39.46826 -72.05091 9.39409 -11.74804 -12.97811 24.55395 -3.88090 -34.33828 83.95702 -6.71482 58.07238 37.18728 13.85585 69.64594 13.77957 19.78948 10.49796 5.67612 -10.35639 22.52767 -3.92832 16.55178 16.32328 -18.04379 0.00655 -0.00247 18.20796 -2.26546 -81.82978 -26.91562 3.73200 61.63713 57.96933 7.06712 -62.32509 -14.25328 0.03736 0.00191 19.29973 -35.75822 36.40021 
28.33365 93.03924 -39.14259 7.42662 11.91091 159.23683 4.93101 23.66369 46.78097 -0.00615 0.01220 -0.02504 -0.98071 13.18820 -50.68042 7.52848 11.23673 -48.39833 -102.83089 -47.61480 -86.01622 -54.27479 40.96501 -71.75878 11.53743 -4.56892 -11.31567 23.70733 -3.84017 -40.56519 83.66251 -4.36802 55.35893 33.85210 16.26882 70.02750 19.73444 20.00002 12.07616 8.46843 -10.37338 28.17985 -3.38142 16.66184 16.65638 -19.60621 0.00084 -0.00524 22.24308 -1.54001 -76.68596 -25.85832 -0.94419 67.11179 57.88314 3.35908 -65.17877 -14.33628 0.00899 0.00595 16.41079 -34.51929 29.53474 
28.10000 93.09641 -39.35055 8.34908 9.86586 153.10225 2.93121 22.64703 50.36021 -0.00490 0.01165 -0.02489 1.35189 12.13491 -52.83157 6.37233 12.54659 -49.04208 -103.86183 -51.06107 -86.54258 -52.92471 43.24721 -71.56898 14.04547 4.23073 -9.71743 20.71291 -1.11427 -45.45330 85.47271 -1.72398 53.81590 29.94994 18.43511 71.23997 25.84678 22.62608 14.25674 11.11781 -10.20669 33.22539 -2.66659 16.98429 16.84966 -21.52513 -0.00621 -0.01089 27.88783 0.90593 -68.40312 -24.55690 -4.97644 72.01509 56.56858 -0.35515 -67.95652 -14.40651 0.00717 0.00468 14.06236 -33.28633 21.72002 
27.86925 93.08730 -39.60227 8.96801 7.85056 147.32054 0.92680 21.37105 53.14765 -0.00563 0.00967 -0.02561 3.82737 11.53192 -54.02483 5.32980 13.28068 -48.03529 -106.77962 -54.41753 -87.92640 -50.73928 46.26666 -71.69872 16.52186 13.08002 -8.70928 18.65177 1.25271 -47.39885 85.57423 -0.05655 53.32870 25.48573 20.28232 73.19898 30.45074 26.71993 17.41636 13.59737 -9.93971 37.64231 -1.89863 17.48958 16.93881 -23.68288 -0.01506 -0.01677 31.50554 2.80559 -62.40515 -23.20038 -8.22295 76.36985 54.24750 -3.81569 -70.67889 -14.38087 0.00894 0.00136 12.04051 -32.06117 13.50282 
27.65017 93.03317 -39.90443 9.19210 6.23447 142.68402 -1.28705 20.00527 53.41096 -0.01739 0.02731 -0.08039 6.31663 12.40302 -52.03723 4.52114 12.75489 -42.50954 -115.02747 -57.94441 -92.40372 -46.22718 51.69817 -73.39988 18.38831 19.80531 -9.41357 18.66954 2.45852 -42.00799 82.00109 -0.10098 56.55372 19.92905 21.70005 76.13894 29.50095 32.04284 22.90999 15.58857 -9.61880 39.80586 -0.64718 18.90330 16.58015 -27.05762 -0.05948 -0.05282 31.43310 1.28019 -60.85000 -22.42612 -9.93983 78.57340 50.95869 -7.32698 -73.15732 -15.20573 -0.02698 0.02247 10.88596 -31.30836 4.70293 
